<svg width="37" height="37" viewBox="0 0 37 37" fill="none" xmlns="http://www.w3.org/2000/svg">
<path d="M26.2076 3.08468C28.2502 3.09056 30.2075 3.9046 31.6519 5.34898C33.0963 6.79336 33.9103 8.75067 33.9162 10.7933V26.2086C33.9103 28.2512 33.0963 30.2086 31.6519 31.6529C30.2075 33.0973 28.2502 33.9114 26.2076 33.9172H10.7913C8.74864 33.9114 6.79134 33.0973 5.34696 31.6529C3.90258 30.2086 3.08853 28.2512 3.08265 26.2086V10.7923C3.08853 8.74966 3.90258 6.79235 5.34696 5.34797C6.79134 3.90359 8.74864 3.08954 10.7913 3.08366H26.2076V3.08468ZM26.2076 0H10.7913C7.93172 0.00855524 5.19173 1.14838 3.16979 3.17051C1.14785 5.19263 0.00828672 7.93273 0 10.7923V26.2086C0.00828672 29.0682 1.14785 31.8083 3.16979 33.8304C5.19173 35.8525 7.93172 36.9923 10.7913 37.0009H26.2076C29.0673 36.9926 31.8076 35.8529 33.8297 33.8307C35.8519 31.8086 36.9916 29.0683 36.9999 26.2086V10.7923C36.9913 7.93274 35.8515 5.19274 33.8294 3.1708C31.8073 1.14887 29.0672 0.00930001 26.2076 0.00101329V0Z" fill="white"/>
<path d="M28.52 10.7925C28.0626 10.7925 27.6155 10.6568 27.2353 10.4027C26.855 10.1486 26.5586 9.78748 26.3835 9.36493C26.2085 8.94237 26.1627 8.47741 26.252 8.02883C26.3412 7.58025 26.5614 7.1682 26.8848 6.8448C27.2082 6.52139 27.6203 6.30114 28.0689 6.21192C28.5174 6.12269 28.9824 6.16848 29.405 6.34351C29.8275 6.51854 30.1887 6.81493 30.4428 7.19522C30.6969 7.57551 30.8325 8.02261 30.8325 8.47997C30.8333 8.78388 30.774 9.08495 30.6581 9.36588C30.5422 9.6468 30.3719 9.90205 30.157 10.1169C29.9421 10.3318 29.6868 10.5021 29.4059 10.6181C29.125 10.734 28.8239 10.7933 28.52 10.7925Z" fill="white"/>
<path d="M18.5 12.3346C19.7196 12.3346 20.9118 12.6963 21.9258 13.3738C22.9398 14.0514 23.7302 15.0145 24.1969 16.1412C24.6636 17.268 24.7857 18.5078 24.5478 19.7039C24.3099 20.9001 23.7226 21.9988 22.8602 22.8612C21.9978 23.7236 20.8991 24.3108 19.703 24.5488C18.5068 24.7867 17.267 24.6646 16.1402 24.1979C15.0135 23.7312 14.0504 22.9408 13.3729 21.9268C12.6953 20.9127 12.3337 19.7205 12.3337 18.5009C12.3353 16.866 12.9855 15.2985 14.1415 14.1425C15.2976 12.9864 16.8651 12.3362 18.5 12.3346ZM18.5 9.25098C16.6705 9.25098 14.8821 9.79348 13.361 10.8099C11.8398 11.8263 10.6542 13.2709 9.95412 14.9611C9.25401 16.6513 9.07083 18.5112 9.42774 20.3055C9.78465 22.0998 10.6656 23.748 11.9593 25.0417C13.2529 26.3353 14.9011 27.2163 16.6954 27.5732C18.4897 27.9301 20.3496 27.7469 22.0398 27.0468C23.73 26.3467 25.1746 25.1611 26.191 23.64C27.2074 22.1188 27.75 20.3304 27.75 18.5009C27.7494 16.0479 26.7747 13.6954 25.0401 11.9608C23.3055 10.2262 20.9531 9.25151 18.5 9.25098Z" fill="white"/>
</svg>
