<svg width="24" height="24" viewBox="0 0 24 24" fill="none" xmlns="http://www.w3.org/2000/svg">
<path d="M12 0C7.3752 0 3.6 3.432 3.6 7.63636C3.6 10.2655 5.076 12.6022 7.3128 13.9778C3.0324 15.6469 0 19.5055 0 24H2.4C2.4 19.1673 6.684 15.2727 12 15.2727C17.316 15.2727 21.6 19.1673 21.6 24H24C24 19.5055 20.9676 15.6458 16.6872 13.9767C17.8291 13.2764 18.7647 12.3322 19.412 11.2268C20.0593 10.1214 20.3985 8.88861 20.4 7.63636C20.4 3.432 16.6248 0 12 0ZM12 2.18182C15.3276 2.18182 18 4.61127 18 7.63636C18 10.6615 15.3276 13.0909 12 13.0909C8.6724 13.0909 6 10.6615 6 7.63636C6 4.61127 8.6724 2.18182 12 2.18182Z" fill="#4D4D4D"/>
</svg>
