<svg width="26" height="26" viewBox="0 0 26 26" fill="none" xmlns="http://www.w3.org/2000/svg">
<path d="M25 17.925V8.07256C24.9996 7.75009 24.9077 7.43335 24.7334 7.15386C24.5592 6.87436 24.3087 6.64188 24.0069 6.47953L14.5069 1.3756C14.0492 1.1296 13.529 1 12.9994 1C12.4697 1 11.9496 1.1296 11.4919 1.3756L1.99312 6.47953C1.69131 6.64188 1.44081 6.87436 1.26657 7.15386C1.09233 7.43335 1.00043 7.75009 1 8.07256V17.925C1.00021 18.2477 1.09201 18.5647 1.26626 18.8444C1.44051 19.1241 1.69112 19.3568 1.99312 19.5192L11.4931 24.6231C11.951 24.8688 12.4711 24.9982 13.0006 24.9982C13.5302 24.9982 14.0503 24.8688 14.5081 24.6231L24.0081 19.5192C24.3099 19.3566 24.5603 19.1239 24.7343 18.8442C24.9083 18.5645 24.9999 18.2476 25 17.925Z" stroke="#4D4D4D" stroke-width="2" stroke-linecap="round" stroke-linejoin="round"/>
<path d="M1.3125 7.11353L13 13.4603L24.6875 7.11353" stroke="#4D4D4D" stroke-width="2" stroke-linecap="round" stroke-linejoin="round"/>
<path d="M13 24.9999V13.4603" stroke="#4D4D4D" stroke-width="2" stroke-linecap="round" stroke-linejoin="round"/>
</svg>
